<mxfile host="app.diagrams.net" agent="Mozilla/5.0 (Windows NT 10.0; Win64; x64) AppleWebKit/537.36 (KHTML, like Gecko) Chrome/127.0.0.0 Safari/537.36 Edg/127.0.0.0" version="24.7.6">
  <diagram name="Page-1" id="zCez9EIOBy8UJhETCfL3">
    <mxGraphModel dx="1656" dy="756" grid="1" gridSize="10" guides="1" tooltips="1" connect="1" arrows="1" fold="1" page="1" pageScale="1" pageWidth="850" pageHeight="1100" math="0" shadow="0">
      <root>
        <mxCell id="0" />
        <mxCell id="1" parent="0" />
        <mxCell id="1pdhytrP8E8JXQ-jUPPN-64" value="" style="rounded=0;whiteSpace=wrap;html=1;" vertex="1" parent="1">
          <mxGeometry x="465" y="590" width="170" height="330" as="geometry" />
        </mxCell>
        <mxCell id="1pdhytrP8E8JXQ-jUPPN-63" value="" style="rounded=0;whiteSpace=wrap;html=1;" vertex="1" parent="1">
          <mxGeometry x="235" y="590" width="170" height="490" as="geometry" />
        </mxCell>
        <mxCell id="1pdhytrP8E8JXQ-jUPPN-36" value="" style="rounded=0;whiteSpace=wrap;html=1;" vertex="1" parent="1">
          <mxGeometry x="35" y="590" width="160" height="500" as="geometry" />
        </mxCell>
        <mxCell id="1pdhytrP8E8JXQ-jUPPN-14" style="edgeStyle=orthogonalEdgeStyle;rounded=0;orthogonalLoop=1;jettySize=auto;html=1;entryX=0.5;entryY=0;entryDx=0;entryDy=0;" edge="1" parent="1" source="1pdhytrP8E8JXQ-jUPPN-7" target="1pdhytrP8E8JXQ-jUPPN-11">
          <mxGeometry relative="1" as="geometry" />
        </mxCell>
        <mxCell id="1pdhytrP8E8JXQ-jUPPN-7" value="" style="rounded=0;whiteSpace=wrap;html=1;" vertex="1" parent="1">
          <mxGeometry x="65" y="90" width="770" height="110" as="geometry" />
        </mxCell>
        <mxCell id="1pdhytrP8E8JXQ-jUPPN-1" value="Initialization and Setup" style="shape=process;whiteSpace=wrap;html=1;backgroundOutline=1;" vertex="1" parent="1">
          <mxGeometry x="385" y="10" width="120" height="60" as="geometry" />
        </mxCell>
        <mxCell id="1pdhytrP8E8JXQ-jUPPN-2" value="Create Output Directory&amp;nbsp;" style="rounded=1;whiteSpace=wrap;html=1;" vertex="1" parent="1">
          <mxGeometry x="685" y="110" width="120" height="60" as="geometry" />
        </mxCell>
        <mxCell id="1pdhytrP8E8JXQ-jUPPN-19" value="" style="edgeStyle=orthogonalEdgeStyle;rounded=0;orthogonalLoop=1;jettySize=auto;html=1;" edge="1" parent="1" source="1pdhytrP8E8JXQ-jUPPN-3" target="1pdhytrP8E8JXQ-jUPPN-4">
          <mxGeometry relative="1" as="geometry" />
        </mxCell>
        <mxCell id="1pdhytrP8E8JXQ-jUPPN-3" value="Load YOLO Model" style="rounded=1;whiteSpace=wrap;html=1;" vertex="1" parent="1">
          <mxGeometry x="85" y="110" width="120" height="60" as="geometry" />
        </mxCell>
        <mxCell id="1pdhytrP8E8JXQ-jUPPN-16" value="" style="edgeStyle=orthogonalEdgeStyle;rounded=0;orthogonalLoop=1;jettySize=auto;html=1;" edge="1" parent="1" source="1pdhytrP8E8JXQ-jUPPN-4" target="1pdhytrP8E8JXQ-jUPPN-5">
          <mxGeometry relative="1" as="geometry" />
        </mxCell>
        <mxCell id="1pdhytrP8E8JXQ-jUPPN-4" value="Load Class Names" style="rounded=1;whiteSpace=wrap;html=1;" vertex="1" parent="1">
          <mxGeometry x="225" y="110" width="120" height="60" as="geometry" />
        </mxCell>
        <mxCell id="1pdhytrP8E8JXQ-jUPPN-17" value="" style="edgeStyle=orthogonalEdgeStyle;rounded=0;orthogonalLoop=1;jettySize=auto;html=1;" edge="1" parent="1" source="1pdhytrP8E8JXQ-jUPPN-5" target="1pdhytrP8E8JXQ-jUPPN-6">
          <mxGeometry relative="1" as="geometry" />
        </mxCell>
        <mxCell id="1pdhytrP8E8JXQ-jUPPN-5" value="Apply NMS&lt;div&gt;Define Thresholds&lt;/div&gt;" style="rounded=1;whiteSpace=wrap;html=1;" vertex="1" parent="1">
          <mxGeometry x="385" y="110" width="120" height="60" as="geometry" />
        </mxCell>
        <mxCell id="1pdhytrP8E8JXQ-jUPPN-18" value="" style="edgeStyle=orthogonalEdgeStyle;rounded=0;orthogonalLoop=1;jettySize=auto;html=1;" edge="1" parent="1" source="1pdhytrP8E8JXQ-jUPPN-6" target="1pdhytrP8E8JXQ-jUPPN-2">
          <mxGeometry relative="1" as="geometry" />
        </mxCell>
        <mxCell id="1pdhytrP8E8JXQ-jUPPN-6" value="Create Trackbars" style="rounded=1;whiteSpace=wrap;html=1;" vertex="1" parent="1">
          <mxGeometry x="535" y="110" width="120" height="60" as="geometry" />
        </mxCell>
        <mxCell id="1pdhytrP8E8JXQ-jUPPN-15" value="" style="edgeStyle=orthogonalEdgeStyle;rounded=0;orthogonalLoop=1;jettySize=auto;html=1;" edge="1" parent="1" source="1pdhytrP8E8JXQ-jUPPN-11" target="1pdhytrP8E8JXQ-jUPPN-12">
          <mxGeometry relative="1" as="geometry" />
        </mxCell>
        <mxCell id="1pdhytrP8E8JXQ-jUPPN-11" value="Define Attention Mechanism Function" style="shape=process;whiteSpace=wrap;html=1;backgroundOutline=1;" vertex="1" parent="1">
          <mxGeometry x="65" y="250" width="170" height="70" as="geometry" />
        </mxCell>
        <mxCell id="1pdhytrP8E8JXQ-jUPPN-82" style="edgeStyle=orthogonalEdgeStyle;rounded=0;orthogonalLoop=1;jettySize=auto;html=1;" edge="1" parent="1" source="1pdhytrP8E8JXQ-jUPPN-12" target="1pdhytrP8E8JXQ-jUPPN-46">
          <mxGeometry relative="1" as="geometry">
            <Array as="points">
              <mxPoint x="375" y="410" />
              <mxPoint x="320" y="410" />
            </Array>
          </mxGeometry>
        </mxCell>
        <mxCell id="1pdhytrP8E8JXQ-jUPPN-83" style="edgeStyle=orthogonalEdgeStyle;rounded=0;orthogonalLoop=1;jettySize=auto;html=1;entryX=0.5;entryY=0;entryDx=0;entryDy=0;" edge="1" parent="1" source="1pdhytrP8E8JXQ-jUPPN-12" target="1pdhytrP8E8JXQ-jUPPN-28">
          <mxGeometry relative="1" as="geometry">
            <Array as="points">
              <mxPoint x="375" y="410" />
              <mxPoint x="115" y="410" />
            </Array>
          </mxGeometry>
        </mxCell>
        <mxCell id="1pdhytrP8E8JXQ-jUPPN-86" style="edgeStyle=orthogonalEdgeStyle;rounded=0;orthogonalLoop=1;jettySize=auto;html=1;" edge="1" parent="1" source="1pdhytrP8E8JXQ-jUPPN-12" target="1pdhytrP8E8JXQ-jUPPN-45">
          <mxGeometry relative="1" as="geometry">
            <Array as="points">
              <mxPoint x="375" y="410" />
              <mxPoint x="545" y="410" />
            </Array>
          </mxGeometry>
        </mxCell>
        <mxCell id="1pdhytrP8E8JXQ-jUPPN-12" value="Define Object Detection Function" style="shape=process;whiteSpace=wrap;html=1;backgroundOutline=1;" vertex="1" parent="1">
          <mxGeometry x="290" y="250" width="170" height="70" as="geometry" />
        </mxCell>
        <mxCell id="1pdhytrP8E8JXQ-jUPPN-26" style="edgeStyle=orthogonalEdgeStyle;rounded=0;orthogonalLoop=1;jettySize=auto;html=1;entryX=0.494;entryY=0.006;entryDx=0;entryDy=0;entryPerimeter=0;" edge="1" parent="1" source="1pdhytrP8E8JXQ-jUPPN-1" target="1pdhytrP8E8JXQ-jUPPN-7">
          <mxGeometry relative="1" as="geometry" />
        </mxCell>
        <mxCell id="1pdhytrP8E8JXQ-jUPPN-38" value="" style="edgeStyle=orthogonalEdgeStyle;rounded=0;orthogonalLoop=1;jettySize=auto;html=1;" edge="1" parent="1" source="1pdhytrP8E8JXQ-jUPPN-28" target="1pdhytrP8E8JXQ-jUPPN-34">
          <mxGeometry relative="1" as="geometry" />
        </mxCell>
        <mxCell id="1pdhytrP8E8JXQ-jUPPN-28" value="Camera Processing" style="shape=process;whiteSpace=wrap;html=1;backgroundOutline=1;" vertex="1" parent="1">
          <mxGeometry x="30" y="490" width="170" height="70" as="geometry" />
        </mxCell>
        <mxCell id="1pdhytrP8E8JXQ-jUPPN-29" value="Show Frames" style="rounded=1;whiteSpace=wrap;html=1;" vertex="1" parent="1">
          <mxGeometry x="55" y="1010" width="120" height="60" as="geometry" />
        </mxCell>
        <mxCell id="1pdhytrP8E8JXQ-jUPPN-43" value="" style="edgeStyle=orthogonalEdgeStyle;rounded=0;orthogonalLoop=1;jettySize=auto;html=1;" edge="1" parent="1" source="1pdhytrP8E8JXQ-jUPPN-30" target="1pdhytrP8E8JXQ-jUPPN-29">
          <mxGeometry relative="1" as="geometry" />
        </mxCell>
        <mxCell id="1pdhytrP8E8JXQ-jUPPN-30" value="Display Detected Objects" style="rounded=1;whiteSpace=wrap;html=1;" vertex="1" parent="1">
          <mxGeometry x="55" y="930" width="120" height="60" as="geometry" />
        </mxCell>
        <mxCell id="1pdhytrP8E8JXQ-jUPPN-42" value="" style="edgeStyle=orthogonalEdgeStyle;rounded=0;orthogonalLoop=1;jettySize=auto;html=1;" edge="1" parent="1" source="1pdhytrP8E8JXQ-jUPPN-31" target="1pdhytrP8E8JXQ-jUPPN-30">
          <mxGeometry relative="1" as="geometry" />
        </mxCell>
        <mxCell id="1pdhytrP8E8JXQ-jUPPN-31" value="Display FPS" style="rounded=1;whiteSpace=wrap;html=1;" vertex="1" parent="1">
          <mxGeometry x="55" y="850" width="120" height="60" as="geometry" />
        </mxCell>
        <mxCell id="1pdhytrP8E8JXQ-jUPPN-41" value="" style="edgeStyle=orthogonalEdgeStyle;rounded=0;orthogonalLoop=1;jettySize=auto;html=1;" edge="1" parent="1" source="1pdhytrP8E8JXQ-jUPPN-32" target="1pdhytrP8E8JXQ-jUPPN-31">
          <mxGeometry relative="1" as="geometry" />
        </mxCell>
        <mxCell id="1pdhytrP8E8JXQ-jUPPN-32" value="Apply Object Detection and Attention Mechanism" style="rounded=1;whiteSpace=wrap;html=1;" vertex="1" parent="1">
          <mxGeometry x="55" y="770" width="120" height="60" as="geometry" />
        </mxCell>
        <mxCell id="1pdhytrP8E8JXQ-jUPPN-40" value="" style="edgeStyle=orthogonalEdgeStyle;rounded=0;orthogonalLoop=1;jettySize=auto;html=1;" edge="1" parent="1" source="1pdhytrP8E8JXQ-jUPPN-33" target="1pdhytrP8E8JXQ-jUPPN-32">
          <mxGeometry relative="1" as="geometry" />
        </mxCell>
        <mxCell id="1pdhytrP8E8JXQ-jUPPN-33" value="Capture Frames" style="rounded=1;whiteSpace=wrap;html=1;" vertex="1" parent="1">
          <mxGeometry x="55" y="690" width="120" height="60" as="geometry" />
        </mxCell>
        <mxCell id="1pdhytrP8E8JXQ-jUPPN-39" value="" style="edgeStyle=orthogonalEdgeStyle;rounded=0;orthogonalLoop=1;jettySize=auto;html=1;" edge="1" parent="1" source="1pdhytrP8E8JXQ-jUPPN-34" target="1pdhytrP8E8JXQ-jUPPN-33">
          <mxGeometry relative="1" as="geometry" />
        </mxCell>
        <mxCell id="1pdhytrP8E8JXQ-jUPPN-34" value="Initialize Camera" style="rounded=1;whiteSpace=wrap;html=1;" vertex="1" parent="1">
          <mxGeometry x="55" y="610" width="120" height="60" as="geometry" />
        </mxCell>
        <mxCell id="1pdhytrP8E8JXQ-jUPPN-78" value="" style="edgeStyle=orthogonalEdgeStyle;rounded=0;orthogonalLoop=1;jettySize=auto;html=1;" edge="1" parent="1" source="1pdhytrP8E8JXQ-jUPPN-45" target="1pdhytrP8E8JXQ-jUPPN-56">
          <mxGeometry relative="1" as="geometry" />
        </mxCell>
        <mxCell id="1pdhytrP8E8JXQ-jUPPN-45" value="Image Processing" style="shape=process;whiteSpace=wrap;html=1;backgroundOutline=1;" vertex="1" parent="1">
          <mxGeometry x="460" y="490" width="170" height="70" as="geometry" />
        </mxCell>
        <mxCell id="1pdhytrP8E8JXQ-jUPPN-67" value="" style="edgeStyle=orthogonalEdgeStyle;rounded=0;orthogonalLoop=1;jettySize=auto;html=1;" edge="1" parent="1" source="1pdhytrP8E8JXQ-jUPPN-46" target="1pdhytrP8E8JXQ-jUPPN-62">
          <mxGeometry relative="1" as="geometry" />
        </mxCell>
        <mxCell id="1pdhytrP8E8JXQ-jUPPN-46" value="Video Processing" style="shape=process;whiteSpace=wrap;html=1;backgroundOutline=1;" vertex="1" parent="1">
          <mxGeometry x="235" y="490" width="170" height="70" as="geometry" />
        </mxCell>
        <mxCell id="1pdhytrP8E8JXQ-jUPPN-53" value="Show Frame" style="rounded=1;whiteSpace=wrap;html=1;" vertex="1" parent="1">
          <mxGeometry x="490" y="840" width="120" height="60" as="geometry" />
        </mxCell>
        <mxCell id="1pdhytrP8E8JXQ-jUPPN-81" value="" style="edgeStyle=orthogonalEdgeStyle;rounded=0;orthogonalLoop=1;jettySize=auto;html=1;" edge="1" parent="1" source="1pdhytrP8E8JXQ-jUPPN-54" target="1pdhytrP8E8JXQ-jUPPN-53">
          <mxGeometry relative="1" as="geometry" />
        </mxCell>
        <mxCell id="1pdhytrP8E8JXQ-jUPPN-54" value="Display Detected Objects" style="rounded=1;whiteSpace=wrap;html=1;" vertex="1" parent="1">
          <mxGeometry x="490" y="760" width="120" height="60" as="geometry" />
        </mxCell>
        <mxCell id="1pdhytrP8E8JXQ-jUPPN-80" value="" style="edgeStyle=orthogonalEdgeStyle;rounded=0;orthogonalLoop=1;jettySize=auto;html=1;" edge="1" parent="1" source="1pdhytrP8E8JXQ-jUPPN-55" target="1pdhytrP8E8JXQ-jUPPN-54">
          <mxGeometry relative="1" as="geometry" />
        </mxCell>
        <mxCell id="1pdhytrP8E8JXQ-jUPPN-55" value="Apply Object Detection and Attention Mechanism" style="rounded=1;whiteSpace=wrap;html=1;" vertex="1" parent="1">
          <mxGeometry x="490" y="680" width="120" height="60" as="geometry" />
        </mxCell>
        <mxCell id="1pdhytrP8E8JXQ-jUPPN-79" value="" style="edgeStyle=orthogonalEdgeStyle;rounded=0;orthogonalLoop=1;jettySize=auto;html=1;" edge="1" parent="1" source="1pdhytrP8E8JXQ-jUPPN-56" target="1pdhytrP8E8JXQ-jUPPN-55">
          <mxGeometry relative="1" as="geometry" />
        </mxCell>
        <mxCell id="1pdhytrP8E8JXQ-jUPPN-56" value="Load Image" style="rounded=1;whiteSpace=wrap;html=1;" vertex="1" parent="1">
          <mxGeometry x="490" y="600" width="120" height="60" as="geometry" />
        </mxCell>
        <mxCell id="1pdhytrP8E8JXQ-jUPPN-77" value="" style="edgeStyle=orthogonalEdgeStyle;rounded=0;orthogonalLoop=1;jettySize=auto;html=1;" edge="1" parent="1" source="1pdhytrP8E8JXQ-jUPPN-57" target="1pdhytrP8E8JXQ-jUPPN-58">
          <mxGeometry relative="1" as="geometry" />
        </mxCell>
        <mxCell id="1pdhytrP8E8JXQ-jUPPN-57" value="Display Detected Objects" style="rounded=1;whiteSpace=wrap;html=1;" vertex="1" parent="1">
          <mxGeometry x="260" y="920" width="120" height="60" as="geometry" />
        </mxCell>
        <mxCell id="1pdhytrP8E8JXQ-jUPPN-58" value="Show Frames" style="rounded=1;whiteSpace=wrap;html=1;" vertex="1" parent="1">
          <mxGeometry x="260" y="1000" width="120" height="60" as="geometry" />
        </mxCell>
        <mxCell id="1pdhytrP8E8JXQ-jUPPN-76" style="edgeStyle=orthogonalEdgeStyle;rounded=0;orthogonalLoop=1;jettySize=auto;html=1;entryX=0.5;entryY=0;entryDx=0;entryDy=0;" edge="1" parent="1" source="1pdhytrP8E8JXQ-jUPPN-59" target="1pdhytrP8E8JXQ-jUPPN-57">
          <mxGeometry relative="1" as="geometry" />
        </mxCell>
        <mxCell id="1pdhytrP8E8JXQ-jUPPN-59" value="Display FPS" style="rounded=1;whiteSpace=wrap;html=1;" vertex="1" parent="1">
          <mxGeometry x="260" y="840" width="120" height="60" as="geometry" />
        </mxCell>
        <mxCell id="1pdhytrP8E8JXQ-jUPPN-72" value="" style="edgeStyle=orthogonalEdgeStyle;rounded=0;orthogonalLoop=1;jettySize=auto;html=1;" edge="1" parent="1" source="1pdhytrP8E8JXQ-jUPPN-60" target="1pdhytrP8E8JXQ-jUPPN-59">
          <mxGeometry relative="1" as="geometry" />
        </mxCell>
        <mxCell id="1pdhytrP8E8JXQ-jUPPN-60" value="Apply Object Detection and Attention Mechanism" style="rounded=1;whiteSpace=wrap;html=1;" vertex="1" parent="1">
          <mxGeometry x="260" y="760" width="120" height="60" as="geometry" />
        </mxCell>
        <mxCell id="1pdhytrP8E8JXQ-jUPPN-69" value="" style="edgeStyle=orthogonalEdgeStyle;rounded=0;orthogonalLoop=1;jettySize=auto;html=1;" edge="1" parent="1" source="1pdhytrP8E8JXQ-jUPPN-61" target="1pdhytrP8E8JXQ-jUPPN-60">
          <mxGeometry relative="1" as="geometry" />
        </mxCell>
        <mxCell id="1pdhytrP8E8JXQ-jUPPN-61" value="Capture Frames" style="rounded=1;whiteSpace=wrap;html=1;" vertex="1" parent="1">
          <mxGeometry x="260" y="680" width="120" height="60" as="geometry" />
        </mxCell>
        <mxCell id="1pdhytrP8E8JXQ-jUPPN-68" value="" style="edgeStyle=orthogonalEdgeStyle;rounded=0;orthogonalLoop=1;jettySize=auto;html=1;" edge="1" parent="1" source="1pdhytrP8E8JXQ-jUPPN-62" target="1pdhytrP8E8JXQ-jUPPN-61">
          <mxGeometry relative="1" as="geometry" />
        </mxCell>
        <mxCell id="1pdhytrP8E8JXQ-jUPPN-62" value="Load Video" style="rounded=1;whiteSpace=wrap;html=1;" vertex="1" parent="1">
          <mxGeometry x="260" y="600" width="120" height="60" as="geometry" />
        </mxCell>
        <mxCell id="1pdhytrP8E8JXQ-jUPPN-94" value="" style="edgeStyle=orthogonalEdgeStyle;rounded=0;orthogonalLoop=1;jettySize=auto;html=1;" edge="1" parent="1" source="1pdhytrP8E8JXQ-jUPPN-66" target="1pdhytrP8E8JXQ-jUPPN-12">
          <mxGeometry relative="1" as="geometry" />
        </mxCell>
        <mxCell id="1pdhytrP8E8JXQ-jUPPN-66" value="Main Function&lt;div&gt;Input Type Selection (Camera/Image/Video)&lt;br&gt;&lt;/div&gt;&lt;div&gt;Call Corresponding Processing Function&lt;br&gt;&lt;/div&gt;" style="shape=process;whiteSpace=wrap;html=1;backgroundOutline=1;" vertex="1" parent="1">
          <mxGeometry x="575" y="290" width="220" height="110" as="geometry" />
        </mxCell>
      </root>
    </mxGraphModel>
  </diagram>
</mxfile>
